<svg height="512pt" viewBox="0 -39 512.00665 512" width="512pt" xmlns="http://www.w3.org/2000/svg"><g fill-rule="evenodd"><path d="m256 178.078125c80.523438 0 145.800781 65.277344 145.800781 145.796875h-291.597656c0-80.519531 65.277344-145.796875 145.796875-145.796875zm0 0" fill="#fec96b"/><path d="m235.753906 10.003906h40.496094v70.5h25.542969v14.25l-22.898438 18.5625-22.894531 18.558594-22.894531-18.558594-22.894531-18.5625v-14.25h25.542968zm0 0" fill="#ff8f8e"/><path d="m502 313.875h-90.515625c-1.9375-30.933594-12.851563-60.085938-31.867187-84.835938-20.382813-26.527343-49.246094-46.105468-81.273438-55.132812-5.320312-1.5-10.839844 1.597656-12.339844 6.910156-1.496094 5.316406 1.597656 10.839844 6.914063 12.339844 54.992187 15.496094 94.320312 64.316406 98.511719 120.71875h-270.855469c4.1875-56.402344 43.515625-105.222656 98.511719-120.71875 5.316406-1.5 8.410156-7.023438 6.914062-12.339844-1.5-5.3125-7.023438-8.410156-12.339844-6.910156-32.027344 9.023438-60.894531 28.605469-81.273437 55.132812-19.019531 24.75-29.933594 53.902344-31.867188 84.835938h-90.515625c-5.523437 0-9.99999975 4.476562-9.99999975 10s4.47656275 10 9.99999975 10h491.996094c5.519531 0 10-4.476562 10-10s-4.480469-10-10-10zm0 0"/><path d="m226 373.511719c0-5.523438-4.476562-10-10-10h-171.976562c-5.519532 0-9.996094 4.476562-9.996094 10 0 5.523437 4.476562 10 9.996094 10h171.976562c5.523438 0 10-4.476563 10-10zm0 0"/><path d="m467.976562 363.511719h-171.976562c-5.519531 0-10 4.476562-10 10 0 5.523437 4.480469 10 10 10h171.976562c5.523438 0 10-4.476563 10-10 0-5.523438-4.476562-10-10-10zm0 0"/><path d="m433.953125 413.148438h-355.90625c-5.523437 0-10 4.476562-10 10 0 5.523437 4.476563 10 10 10h355.90625c5.523437 0 10-4.476563 10-10 0-5.523438-4.476563-10-10-10zm0 0"/><path d="m440.542969 263.914062c1.371093 4.226563 5.292969 6.914063 9.507812 6.914063 1.023438 0 2.066407-.160156 3.09375-.492187l51.945313-16.878907c5.25-1.707031 8.125-7.347656 6.421875-12.601562-1.707031-5.253907-7.351563-8.128907-12.601563-6.421875l-51.945312 16.878906c-5.253906 1.707031-8.128906 7.351562-6.421875 12.601562zm0 0"/><path d="m334.921875 146.613281c1.324219.585938 2.703125.863281 4.0625.863281 3.828125 0 7.484375-2.210937 9.144531-5.933593l22.214844-49.894531c2.246094-5.046876-.023438-10.957032-5.070312-13.203126-5.042969-2.246093-10.953126.023438-13.199219 5.066407l-22.21875 49.898437c-2.246094 5.042969.023437 10.953125 5.066406 13.203125zm0 0"/><path d="m407.597656 197.378906c2.386719 0 4.777344-.847656 6.691406-2.570312l40.625-36.578125c4.101563-3.695313 4.433594-10.019531.738282-14.121094-3.695313-4.105469-10.019532-4.4375-14.121094-.742187l-40.625 36.578124c-4.105469 3.699219-4.4375 10.019532-.742188 14.125 1.976563 2.191407 4.699219 3.308594 7.433594 3.308594zm0 0"/><path d="m6.914062 253.457031 51.945313 16.878907c1.027344.332031 2.066406.492187 3.089844.492187 4.214843 0 8.136719-2.6875 9.507812-6.914063 1.707031-5.25-1.164062-10.894531-6.417969-12.601562l-51.945312-16.878906c-5.253906-1.707032-10.894531 1.167968-12.601562 6.421875-1.707032 5.253906 1.167968 10.894531 6.421874 12.601562zm0 0"/><path d="m57.089844 158.230469 40.625 36.578125c1.910156 1.722656 4.304687 2.570312 6.6875 2.570312 2.734375 0 5.460937-1.117187 7.433594-3.308594 3.695312-4.105468 3.363281-10.429687-.738282-14.125l-40.625-36.578124c-4.105468-3.695313-10.425781-3.363282-14.121094.742187-3.699218 4.101563-3.367187 10.425781.738282 14.121094zm0 0"/><path d="m163.875 141.542969c1.65625 3.722656 5.3125 5.933593 9.140625 5.933593 1.359375 0 2.742187-.277343 4.0625-.863281 5.042969-2.246093 7.3125-8.160156 5.066406-13.203125l-22.214843-49.898437c-2.246094-5.042969-8.160157-7.316407-13.203126-5.066407-5.042968 2.246094-7.3125 8.15625-5.066406 13.203126zm0 0"/><path d="m203.914062 102.519531 45.789063 37.125c1.835937 1.488281 4.066406 2.230469 6.296875 2.230469 2.234375 0 4.464844-.742188 6.300781-2.230469l45.789063-37.125c2.34375-1.898437 3.703125-4.75 3.703125-7.765625v-14.25c0-5.523437-4.480469-10-10-10h-15.542969v-60.5c0-5.523437-4.476562-9.99999975-10-9.99999975h-40.496094c-5.523437 0-10 4.47656275-10 9.99999975v60.5h-15.542968c-5.523438 0-10 4.476563-10 10v14.25c0 3.011719 1.359374 5.867188 3.703124 7.765625zm31.839844-12.015625c5.523438 0 10-4.476562 10-10v-60.5h20.496094v60.5c0 5.523438 4.476562 10 10 10h14.90625l-35.15625 28.5-35.152344-28.5zm0 0"/><path d="m246 178.078125c0 5.507813 4.492188 10 10 10s10.003906-4.492187 10.003906-10-4.496094-10-10.003906-10-10 4.492187-10 10zm0 0"/><path d="m266.003906 373.511719c0-5.507813-4.496094-10-10.003906-10s-10 4.492187-10 10c0 5.507812 4.492188 10 10 10s10.003906-4.492188 10.003906-10zm0 0"/></g></svg>